<mxfile host="app.diagrams.net" agent="Mozilla/5.0 (Windows NT 10.0; Win64; x64) AppleWebKit/537.36 (KHTML, like Gecko) Chrome/131.0.0.0 Safari/537.36 OPR/116.0.0.0" version="26.0.15">
  <diagram name="Page-1" id="khjgqsLzZAYAOaXTi-Oe">
    <mxGraphModel dx="1248" dy="1706" grid="1" gridSize="10" guides="1" tooltips="1" connect="1" arrows="1" fold="1" page="1" pageScale="1" pageWidth="827" pageHeight="1169" math="0" shadow="0">
      <root>
        <mxCell id="0" />
        <mxCell id="1" parent="0" />
        <mxCell id="TP3efj2cD_kNWF2iTlWI-1" value="acceuile home page for all&amp;nbsp;" style="rounded=0;whiteSpace=wrap;html=1;" vertex="1" parent="1">
          <mxGeometry x="60" y="-480" width="160" height="240" as="geometry" />
        </mxCell>
        <mxCell id="TP3efj2cD_kNWF2iTlWI-8" style="edgeStyle=orthogonalEdgeStyle;rounded=0;orthogonalLoop=1;jettySize=auto;html=1;exitX=1;exitY=0.5;exitDx=0;exitDy=0;exitPerimeter=0;entryX=0;entryY=0.5;entryDx=0;entryDy=0;" edge="1" parent="1" source="TP3efj2cD_kNWF2iTlWI-2" target="TP3efj2cD_kNWF2iTlWI-4">
          <mxGeometry relative="1" as="geometry" />
        </mxCell>
        <mxCell id="TP3efj2cD_kNWF2iTlWI-2" value="connexinon&amp;nbsp;" style="html=1;shadow=0;dashed=0;align=center;verticalAlign=middle;shape=mxgraph.arrows2.arrow;dy=0.6;dx=40;notch=0;" vertex="1" parent="1">
          <mxGeometry x="220" y="-395" width="120" height="70" as="geometry" />
        </mxCell>
        <mxCell id="TP3efj2cD_kNWF2iTlWI-6" style="edgeStyle=orthogonalEdgeStyle;rounded=0;orthogonalLoop=1;jettySize=auto;html=1;entryX=0.5;entryY=0;entryDx=0;entryDy=0;" edge="1" parent="1" source="TP3efj2cD_kNWF2iTlWI-3" target="TP3efj2cD_kNWF2iTlWI-4">
          <mxGeometry relative="1" as="geometry" />
        </mxCell>
        <mxCell id="TP3efj2cD_kNWF2iTlWI-3" value="page entreprise" style="rounded=1;whiteSpace=wrap;html=1;" vertex="1" parent="1">
          <mxGeometry x="350" y="-480" width="120" height="60" as="geometry" />
        </mxCell>
        <mxCell id="TP3efj2cD_kNWF2iTlWI-7" style="edgeStyle=orthogonalEdgeStyle;rounded=0;orthogonalLoop=1;jettySize=auto;html=1;entryX=0.5;entryY=0;entryDx=0;entryDy=0;" edge="1" parent="1" source="TP3efj2cD_kNWF2iTlWI-4" target="TP3efj2cD_kNWF2iTlWI-5">
          <mxGeometry relative="1" as="geometry" />
        </mxCell>
        <mxCell id="TP3efj2cD_kNWF2iTlWI-4" value="&#xa;&lt;span style=&quot;color: rgb(0, 0, 0); font-family: Helvetica; font-size: 12px; font-style: normal; font-variant-ligatures: normal; font-variant-caps: normal; font-weight: 400; letter-spacing: normal; orphans: 2; text-align: center; text-indent: 0px; text-transform: none; widows: 2; word-spacing: 0px; -webkit-text-stroke-width: 0px; white-space: normal; background-color: rgb(251, 251, 251); text-decoration-thickness: initial; text-decoration-style: initial; text-decoration-color: initial; display: inline !important; float: none;&quot;&gt;page entreprise&lt;/span&gt;&#xa;&#xa;" style="rounded=0;whiteSpace=wrap;html=1;" vertex="1" parent="1">
          <mxGeometry x="354" y="-380" width="120" height="60" as="geometry" />
        </mxCell>
        <mxCell id="TP3efj2cD_kNWF2iTlWI-5" value="page entreprise" style="rounded=1;whiteSpace=wrap;html=1;" vertex="1" parent="1">
          <mxGeometry x="360" y="-280" width="120" height="60" as="geometry" />
        </mxCell>
        <mxCell id="TP3efj2cD_kNWF2iTlWI-17" style="edgeStyle=orthogonalEdgeStyle;rounded=0;orthogonalLoop=1;jettySize=auto;html=1;exitX=0;exitY=0.5;exitDx=0;exitDy=0;entryX=0;entryY=0.5;entryDx=0;entryDy=0;" edge="1" parent="1" source="TP3efj2cD_kNWF2iTlWI-14" target="TP3efj2cD_kNWF2iTlWI-15">
          <mxGeometry relative="1" as="geometry" />
        </mxCell>
        <mxCell id="TP3efj2cD_kNWF2iTlWI-9" value="" style="html=1;shadow=0;dashed=0;align=center;verticalAlign=middle;shape=mxgraph.arrows2.arrow;dy=0.6;dx=40;notch=0;" vertex="1" parent="1">
          <mxGeometry x="510" y="-380" width="100" height="70" as="geometry" />
        </mxCell>
        <mxCell id="TP3efj2cD_kNWF2iTlWI-10" style="edgeStyle=orthogonalEdgeStyle;rounded=0;orthogonalLoop=1;jettySize=auto;html=1;entryX=0;entryY=0;entryDx=0;entryDy=49;entryPerimeter=0;" edge="1" parent="1" source="TP3efj2cD_kNWF2iTlWI-5" target="TP3efj2cD_kNWF2iTlWI-9">
          <mxGeometry relative="1" as="geometry" />
        </mxCell>
        <mxCell id="TP3efj2cD_kNWF2iTlWI-11" style="edgeStyle=orthogonalEdgeStyle;rounded=0;orthogonalLoop=1;jettySize=auto;html=1;exitX=1;exitY=0.5;exitDx=0;exitDy=0;entryX=0;entryY=0.5;entryDx=0;entryDy=0;entryPerimeter=0;" edge="1" parent="1" source="TP3efj2cD_kNWF2iTlWI-4" target="TP3efj2cD_kNWF2iTlWI-9">
          <mxGeometry relative="1" as="geometry" />
        </mxCell>
        <mxCell id="TP3efj2cD_kNWF2iTlWI-12" style="edgeStyle=orthogonalEdgeStyle;rounded=0;orthogonalLoop=1;jettySize=auto;html=1;exitX=1;exitY=0.5;exitDx=0;exitDy=0;entryX=0;entryY=0;entryDx=0;entryDy=21;entryPerimeter=0;" edge="1" parent="1" source="TP3efj2cD_kNWF2iTlWI-3" target="TP3efj2cD_kNWF2iTlWI-9">
          <mxGeometry relative="1" as="geometry" />
        </mxCell>
        <mxCell id="TP3efj2cD_kNWF2iTlWI-13" value="offres" style="rounded=1;whiteSpace=wrap;html=1;" vertex="1" parent="1">
          <mxGeometry x="620" y="-470" width="120" height="60" as="geometry" />
        </mxCell>
        <mxCell id="TP3efj2cD_kNWF2iTlWI-14" value="&#xa;&lt;span style=&quot;color: rgb(0, 0, 0); font-family: Helvetica; font-size: 12px; font-style: normal; font-variant-ligatures: normal; font-variant-caps: normal; font-weight: 400; letter-spacing: normal; orphans: 2; text-align: center; text-indent: 0px; text-transform: none; widows: 2; word-spacing: 0px; -webkit-text-stroke-width: 0px; white-space: normal; background-color: rgb(251, 251, 251); text-decoration-thickness: initial; text-decoration-style: initial; text-decoration-color: initial; display: inline !important; float: none;&quot;&gt;offres&lt;/span&gt;&#xa;&#xa;" style="rounded=1;whiteSpace=wrap;html=1;" vertex="1" parent="1">
          <mxGeometry x="630" y="-370" width="120" height="60" as="geometry" />
        </mxCell>
        <mxCell id="TP3efj2cD_kNWF2iTlWI-15" value="&#xa;&lt;span style=&quot;color: rgb(0, 0, 0); font-family: Helvetica; font-size: 12px; font-style: normal; font-variant-ligatures: normal; font-variant-caps: normal; font-weight: 400; letter-spacing: normal; orphans: 2; text-align: center; text-indent: 0px; text-transform: none; widows: 2; word-spacing: 0px; -webkit-text-stroke-width: 0px; white-space: normal; background-color: rgb(251, 251, 251); text-decoration-thickness: initial; text-decoration-style: initial; text-decoration-color: initial; display: inline !important; float: none;&quot;&gt;offres&lt;/span&gt;&#xa;&#xa;" style="rounded=1;whiteSpace=wrap;html=1;" vertex="1" parent="1">
          <mxGeometry x="630" y="-270" width="120" height="60" as="geometry" />
        </mxCell>
        <mxCell id="TP3efj2cD_kNWF2iTlWI-16" style="edgeStyle=orthogonalEdgeStyle;rounded=0;orthogonalLoop=1;jettySize=auto;html=1;entryX=-0.01;entryY=0.383;entryDx=0;entryDy=0;entryPerimeter=0;" edge="1" parent="1" source="TP3efj2cD_kNWF2iTlWI-9" target="TP3efj2cD_kNWF2iTlWI-13">
          <mxGeometry relative="1" as="geometry" />
        </mxCell>
        <mxCell id="TP3efj2cD_kNWF2iTlWI-18" value="dashobrd moderateur&amp;nbsp;" style="rounded=1;whiteSpace=wrap;html=1;" vertex="1" parent="1">
          <mxGeometry x="100" y="-150" width="120" height="60" as="geometry" />
        </mxCell>
        <mxCell id="TP3efj2cD_kNWF2iTlWI-24" style="edgeStyle=orthogonalEdgeStyle;rounded=0;orthogonalLoop=1;jettySize=auto;html=1;entryX=0.5;entryY=0;entryDx=0;entryDy=0;" edge="1" parent="1" source="TP3efj2cD_kNWF2iTlWI-19" target="TP3efj2cD_kNWF2iTlWI-22">
          <mxGeometry relative="1" as="geometry" />
        </mxCell>
        <mxCell id="TP3efj2cD_kNWF2iTlWI-25" style="edgeStyle=orthogonalEdgeStyle;rounded=0;orthogonalLoop=1;jettySize=auto;html=1;entryX=0.5;entryY=1;entryDx=0;entryDy=0;" edge="1" parent="1" source="TP3efj2cD_kNWF2iTlWI-19" target="TP3efj2cD_kNWF2iTlWI-22">
          <mxGeometry relative="1" as="geometry" />
        </mxCell>
        <mxCell id="TP3efj2cD_kNWF2iTlWI-19" value="gestion de candidture&amp;nbsp;" style="rounded=1;whiteSpace=wrap;html=1;" vertex="1" parent="1">
          <mxGeometry x="540" y="-140" width="120" height="60" as="geometry" />
        </mxCell>
        <mxCell id="TP3efj2cD_kNWF2iTlWI-23" style="edgeStyle=orthogonalEdgeStyle;rounded=0;orthogonalLoop=1;jettySize=auto;html=1;entryX=0;entryY=0.5;entryDx=0;entryDy=0;" edge="1" parent="1" source="TP3efj2cD_kNWF2iTlWI-22" target="TP3efj2cD_kNWF2iTlWI-19">
          <mxGeometry relative="1" as="geometry" />
        </mxCell>
        <mxCell id="TP3efj2cD_kNWF2iTlWI-22" value="&lt;h1 style=&quot;margin-top: 0px;&quot;&gt;witch list + postuler&amp;nbsp;&lt;/h1&gt;" style="text;html=1;whiteSpace=wrap;overflow=hidden;rounded=0;" vertex="1" parent="1">
          <mxGeometry x="330" y="-150" width="180" height="120" as="geometry" />
        </mxCell>
      </root>
    </mxGraphModel>
  </diagram>
</mxfile>
